<?xml version="1.0" encoding="UTF-8" standalone="no"?>
<!-- Created with Inkscape (http://www.inkscape.org/) -->

<svg
   width="10mm"
   height="10mm"
   viewBox="0 0 10 10"
   version="1.1"
   id="svg443"
   inkscape:version="1.2.2 (732a01da63, 2022-12-09)"
   sodipodi:docname="climate.svg"
   inkscape:export-filename="climate.png"
   inkscape:export-xdpi="254"
   inkscape:export-ydpi="254"
   xmlns:inkscape="http://www.inkscape.org/namespaces/inkscape"
   xmlns:sodipodi="http://sodipodi.sourceforge.net/DTD/sodipodi-0.dtd"
   xmlns="http://www.w3.org/2000/svg"
   xmlns:svg="http://www.w3.org/2000/svg">
  <sodipodi:namedview
     id="namedview445"
     pagecolor="#ffffff"
     bordercolor="#000000"
     borderopacity="0.25"
     inkscape:showpageshadow="2"
     inkscape:pageopacity="0.0"
     inkscape:pagecheckerboard="0"
     inkscape:deskcolor="#d1d1d1"
     inkscape:document-units="mm"
     showgrid="false"
     inkscape:zoom="11.816274"
     inkscape:cx="19.253108"
     inkscape:cy="27.081295"
     inkscape:window-width="1920"
     inkscape:window-height="1009"
     inkscape:window-x="-8"
     inkscape:window-y="-8"
     inkscape:window-maximized="1"
     inkscape:current-layer="layer1" />
  <defs
     id="defs440">
    <clipPath
       clipPathUnits="userSpaceOnUse"
       id="clipPath776">
      <path
         d="m 204,207.6 h 25.2 v 25.2 H 204 Z"
         clip-rule="evenodd"
         id="path774" />
    </clipPath>
    <clipPath
       clipPathUnits="userSpaceOnUse"
       id="clipPath786">
      <path
         d="M 0,0 H 11.65 V 11.654 H 0 Z"
         id="path784" />
    </clipPath>
    <clipPath
       clipPathUnits="userSpaceOnUse"
       id="clipPath796">
      <path
         d="M 0.084986,11.569 H 11.605 V 0.04915 H 0.084986"
         clip-rule="evenodd"
         id="path794" />
    </clipPath>
    <clipPath
       clipPathUnits="userSpaceOnUse"
       id="clipPath808">
      <path
         d="M 0.084988,11.569 H 11.605 V 0.049148 l -11.52001,1e-6"
         clip-rule="evenodd"
         id="path806" />
    </clipPath>
    <clipPath
       clipPathUnits="userSpaceOnUse"
       id="clipPath820">
      <path
         d="M 0.084988,11.569 H 11.605 V 0.049149 l -11.520011,1e-6"
         clip-rule="evenodd"
         id="path818" />
    </clipPath>
  </defs>
  <g
     inkscape:label="Layer 1"
     inkscape:groupmode="layer"
     id="layer1">
    <g
       id="g770"
       transform="matrix(0.45180271,0,0,-0.45180273,-92.884964,104.55292)">
      <g
         id="g772"
         clip-path="url(#clipPath776)">
        <g
           id="g778"
           transform="matrix(0.35,-1.88e-7,-1.88e-7,0.35,204,207.6)">
          <g
             id="g780"
             transform="scale(6.1802,6.178)">
            <g
               id="g782"
               clip-path="url(#clipPath786)">
              <path
                 d="m 6.901,8.8691 h 0.48 v 1.44 h -0.48 z"
                 style="fill:#000000;fill-opacity:1;fill-rule:nonzero;stroke:none"
                 id="path788" />
              <g
                 id="g790">
                <g
                   id="g792"
                   clip-path="url(#clipPath796)">
                  <path
                     d="M 9.9491,9.0501 8.9308,8.0319 8.5914,8.3713 9.6097,9.3895 Z"
                     style="fill:#000000;fill-opacity:1;fill-rule:nonzero;stroke:none"
                     id="path798" />
                </g>
              </g>
              <path
                 d="m 9.421,6.3491 h 1.44 v 0.48 h -1.44 z"
                 style="fill:#000000;fill-opacity:1;fill-rule:nonzero;stroke:none"
                 id="path800" />
              <g
                 id="g802">
                <g
                   id="g804"
                   clip-path="url(#clipPath808)">
                  <path
                     d="M 9.9466,4.1311 9.6072,3.7917 8.589,4.8099 8.9284,5.1494 Z"
                     style="fill:#000000;fill-opacity:1;fill-rule:nonzero;stroke:none"
                     id="path810" />
                </g>
              </g>
              <path
                 d="m 3.421,6.8291 h 1.44 v -0.48 h -1.44 z"
                 style="fill:#000000;fill-opacity:1;fill-rule:nonzero;stroke:none"
                 id="path812" />
              <g
                 id="g814">
                <g
                   id="g816"
                   clip-path="url(#clipPath820)">
                  <path
                     d="M 5.7003,8.3653 5.3609,8.0258 4.3427,9.0441 4.6821,9.3835 Z"
                     style="fill:#000000;fill-opacity:1;fill-rule:nonzero;stroke:none"
                     id="path822" />
                </g>
              </g>
              <path
                 d="m 7.861,3.5891 c -0.06,0 -0.12,0 -0.18,-0.012 0,0 0,0.012 0,0.012 0,0.456 -0.216,0.9 -0.6,1.164 C 6.709,5.0291 6.229,5.1011 5.785,4.9571 5.413,5.6531 4.609,6.0131 3.841,5.8211 3.073,5.6411 2.533,4.9571 2.509,4.1651 2.005,4.2611 1.465,4.0691 1.129,3.6491 0.80499,3.2291 0.73299,2.6531 0.94899,2.1731 1.165,1.6811 1.633,1.3571 2.173,1.3211 l 5.76,-0.012 c 0.624,0.012 1.128,0.54 1.104,1.176 -0.012,0.624 -0.54,1.116 -1.176,1.104 z"
                 style="fill:#000000;fill-opacity:1;fill-rule:nonzero;stroke:none"
                 id="path824" />
              <path
                 d="m 5.437,6.0131 c 0.216,-0.132 0.42,-0.312 0.576,-0.516 0.624,0.072 1.236,-0.156 1.656,-0.624 0.696,0.216 1.2,0.828 1.26,1.56 0.06,0.732 -0.324,1.428 -0.972,1.764 -0.648,0.336 -1.44,0.24 -1.992,-0.24 -0.552,-0.48 -0.756,-1.248 -0.528,-1.944 z"
                 style="fill:#000000;fill-opacity:1;fill-rule:nonzero;stroke:none"
                 id="path826" />
            </g>
          </g>
        </g>
      </g>
    </g>
  </g>
</svg>
