<?xml version="1.0" encoding="UTF-8" standalone="no"?>
<!-- Created with Inkscape (http://www.inkscape.org/) -->

<svg
   width="10mm"
   height="10mm"
   viewBox="0 0 10 10"
   version="1.1"
   id="svg443"
   inkscape:version="1.2.2 (732a01da63, 2022-12-09)"
   sodipodi:docname="climate.svg"
   inkscape:export-filename="climate.png"
   inkscape:export-xdpi="254"
   inkscape:export-ydpi="254"
   xmlns:inkscape="http://www.inkscape.org/namespaces/inkscape"
   xmlns:sodipodi="http://sodipodi.sourceforge.net/DTD/sodipodi-0.dtd"
   xmlns="http://www.w3.org/2000/svg"
   xmlns:svg="http://www.w3.org/2000/svg">
  <sodipodi:namedview
     id="namedview445"
     pagecolor="#ffffff"
     bordercolor="#000000"
     borderopacity="0.25"
     inkscape:showpageshadow="2"
     inkscape:pageopacity="0.0"
     inkscape:pagecheckerboard="0"
     inkscape:deskcolor="#d1d1d1"
     inkscape:document-units="mm"
     showgrid="false"
     inkscape:zoom="11.816274"
     inkscape:cx="22.849843"
     inkscape:cy="26.996666"
     inkscape:window-width="1920"
     inkscape:window-height="1009"
     inkscape:window-x="-8"
     inkscape:window-y="-8"
     inkscape:window-maximized="1"
     inkscape:current-layer="layer1" />
  <defs
     id="defs440" />
  <g
     inkscape:label="Layer 1"
     inkscape:groupmode="layer"
     id="layer1">
    <path
       style="fill:#000000;stroke-width:0.0139949"
       d="M 1.2212414,8.2874671 C 0.97820538,8.2362014 0.72451335,8.09869 0.53999231,7.9182018 0.22149764,7.606668 0.07451812,7.24346 0.09320305,6.8141213 0.11285322,6.3626041 0.32859479,5.9521536 0.67624897,5.7048699 l 0.0983766,-0.069975 -0.00944,-0.090967 C 0.70603883,4.9739615 0.88404092,4.4448049 1.2637458,4.0618316 1.7225967,3.5990307 2.398958,3.4208232 3.0191578,3.5993153 c 0.1719552,0.049488 0.4449994,0.1826232 0.5709911,0.2784124 0.125593,0.095486 0.3034049,0.285866 0.3917492,0.4194382 l 0.072623,0.1098026 0.099249,0.016381 c 0.212776,0.035119 0.4989169,0.156368 0.7069037,0.2995401 0.1224497,0.084291 0.3225705,0.2768543 0.4023914,0.3871953 C 5.4612306,5.38402 5.5787346,5.696052 5.5991486,6.0025535 l 0.00864,0.1297446 0.086001,0.061368 c 0.194035,0.1384608 0.3611126,0.3673945 0.4425523,0.606397 0.044548,0.1307377 0.046495,0.1453039 0.047221,0.3532815 6.462e-4,0.185149 -0.00387,0.2328933 -0.03085,0.3259635 C 6.0245123,7.9216187 5.6834625,8.2279485 5.2389186,8.3000745 5.1790931,8.3097805 4.507416,8.3144176 3.2453829,8.3138338 1.4598764,8.3130112 1.3345933,8.3113769 1.2212408,8.2874665 Z M 5.2916108,7.8366363 C 5.4161725,7.790421 5.4945252,7.7374616 5.5853256,7.638112 5.886936,7.3081018 5.779614,6.7397693 5.3761458,6.5303825 5.1900955,6.433828 5.1696868,6.3978751 5.1696868,6.1666703 c 0,-0.1853819 -0.02555,-0.329557 -0.085559,-0.4827925 C 4.9226956,5.271647 4.529354,4.9462888 4.078082,4.8517124 3.8491171,4.8037261 3.6737501,4.8111688 3.3845946,4.8811437 3.213912,4.9224483 3.1802978,4.920132 3.1116075,4.8623329 3.0251205,4.7895594 3.0057835,4.6836213 3.0625675,4.5936704 3.104603,4.5270824 3.1728843,4.4928164 3.3554273,4.4467058 3.4313453,4.4275286 3.4974713,4.407682 3.5023738,4.4026027 3.5173465,4.3870873 3.350015,4.243912 3.2315108,4.1708407 3.1087402,4.095139 2.9535491,4.0306467 2.8078645,3.994787 2.6641862,3.9594214 2.3837473,3.9629241 2.2255095,4.0020615 1.9727625,4.0645729 1.7652198,4.180624 1.5907338,4.3570083 1.4605285,4.4886288 1.3919694,4.5821071 1.3220347,4.7233676 1.2324602,4.9042981 1.2058169,5.0261573 1.2038235,5.2640302 c -0.00163,0.1955193 -6.803e-4,0.2027675 0.02629,0.198565 0.015395,-0.0024 0.1130095,-0.00768 0.2169219,-0.011742 0.1801485,-0.00703 0.1918432,-0.00581 0.2515653,0.026302 0.08066,0.043373 0.1343088,0.1386409 0.1202566,0.2135456 -0.011814,0.062972 -0.079862,0.1413239 -0.1381064,0.159018 -0.024631,0.00748 -0.1109104,0.017055 -0.1917306,0.02127 -0.3111788,0.01623 -0.52535812,0.1205783 -0.73028462,0.3557951 -0.19925796,0.2287094 -0.2806715,0.5758176 -0.20706883,0.8828427 0.0445463,0.185822 0.12361877,0.322731 0.27203275,0.471008 0.16012072,0.1599749 0.3134233,0.2430806 0.5264229,0.2853785 0.034064,0.00677 0.9119699,0.011347 1.9512412,0.010184 l 1.8893155,-0.00211 z M 6.6723424,7.6222629 C 6.5666878,7.5589299 6.5630644,7.538494 6.5876254,7.1444552 c 0.02345,-0.3762079 0.03027,-0.4023616 0.1208315,-0.4633913 0.119064,-0.080237 0.3099488,2.847e-4 0.3312167,0.1396841 0.00383,0.025135 -0.00231,0.193053 -0.013653,0.3731496 -0.022611,0.3590621 -0.024642,0.3663165 -0.1208226,0.4317766 -0.063945,0.043521 -0.1568341,0.04216 -0.2328584,-0.00341 z M 8.038648,7.262417 C 7.9838733,7.2344981 7.9624964,7.2084453 7.8745171,7.0623785 7.8188835,6.9700119 7.7471443,6.8430127 7.7150978,6.7801584 7.6640141,6.6799668 7.6580022,6.6585573 7.6663255,6.6065 7.686323,6.4814478 7.7515139,6.4220915 7.877368,6.4143486 c 0.1322742,-0.00814 0.1543774,0.013495 0.3234173,0.3165152 0.078629,0.1409497 0.1470255,0.27794 0.1519931,0.3044228 0.013037,0.069489 -0.031849,0.1629292 -0.099471,0.2070678 -0.080876,0.052791 -0.1396687,0.058286 -0.2146594,0.020063 z M 6.5558947,6.4439779 C 6.4149248,6.4189315 6.2042602,6.3497755 6.1835472,6.3217459 6.1629233,6.2938367 6.0170813,5.8534488 6.025631,5.8448989 6.029471,5.8410589 6.100298,5.8634239 6.1830235,5.8945979 6.4747598,6.0045343 6.6706778,6.0399417 6.931284,6.0298272 7.0769662,6.0241772 7.1529628,6.0138022 7.2532331,5.9858922 7.665582,5.871117 8.0123238,5.5690958 8.1810885,5.1777036 8.2765351,4.9563476 8.2969407,4.8535218 8.2972618,4.5922729 8.2975782,4.394358 8.2928478,4.3433559 8.26466,4.2354023 8.1340329,3.7351123 7.7381929,3.3423371 7.2339397,3.2126617 7.0322378,3.1607915 6.7764928,3.1600482 6.5691801,3.2107315 6.3014136,3.276192 6.0831169,3.4004922 5.8963691,3.5938355 5.6403832,3.8588626 5.5099767,4.1504565 5.4952229,4.4908113 c -0.00409,0.094291 -0.00962,0.171438 -0.012293,0.171438 -0.00653,0 -0.1622616,-0.095547 -0.2980561,-0.1828712 l -0.1102393,-0.070889 0.00661,-0.058553 C 5.1291713,3.9252544 5.2999485,3.5800613 5.623352,3.2541709 5.8191522,3.0568654 6.0357439,2.9263473 6.3294074,2.8287023 6.9829134,2.6114077 7.6752991,2.7704202 8.1736338,3.2522466 8.7264962,3.7867948 8.8865518,4.6159817 8.5769379,5.3416161 8.317851,5.9488283 7.79183,6.3535959 7.1332944,6.4524828 c -0.1397985,0.020992 -0.4359355,0.016631 -0.577399,-0.0085 z m 2.0467282,-0.045792 c -0.052955,-0.03229 -0.088147,-0.094066 -0.088147,-0.1547357 0,-0.1161014 0.113748,-0.192388 0.2297679,-0.1540979 0.1437208,0.047431 0.1432234,0.2568036 -7.911e-4,0.3169606 -0.061743,0.025798 -0.087687,0.024301 -0.1408695,-0.00813 z M 9.4058577,5.8590175 C 9.3363425,5.8349483 8.9607638,5.6099777 8.8977848,5.5546814 8.8341855,5.498844 8.8083711,5.4469841 8.8083711,5.3750886 c 0,-0.1468779 0.1395769,-0.2611141 0.2658728,-0.2176021 0.08407,0.028964 0.5072479,0.2831397 0.5555274,0.3336694 C 9.7562047,5.6234767 9.6838463,5.8364527 9.501121,5.8698004 9.478029,5.8740204 9.435159,5.8691676 9.40586,5.8590174 Z M 9.0740547,4.6643223 c -0.1532778,-0.081453 -0.1508515,-0.3197008 0.00415,-0.4042252 0.038283,-0.02088 0.091712,-0.025297 0.3542478,-0.02928 0.3483341,-0.00529 0.4064382,0.00365 0.4759498,0.073157 0.1207917,0.1207919 0.071149,0.3270874 -0.089441,0.3716894 -0.028648,0.00796 -0.196208,0.014449 -0.3740063,0.014494 -0.2867012,5.27e-5 -0.3274607,-0.00277 -0.3708643,-0.025835 z M 4.5541886,4.1763909 C 4.4775416,4.1371089 4.4419411,4.0719078 4.4420029,3.9709254 c 4.16e-5,-0.059996 0.00818,-0.098726 0.02737,-0.1302028 0.052176,-0.085572 0.1630315,-0.1127141 0.2482165,-0.060773 0.060933,0.037153 0.08761,0.082225 0.097352,0.1644762 0.020462,0.1727695 -0.1245485,0.3017706 -0.2607528,0.2319651 z M 8.8668628,3.7158201 C 8.7172759,3.6396076 8.695815,3.4255392 8.827833,3.3264889 8.88871,3.2808129 9.3627227,3.0811961 9.43359,3.0713913 9.5626261,3.0535383 9.6761209,3.1576123 9.6760019,3.2936834 9.6759068,3.4056574 9.6057579,3.478797 9.4241466,3.556289 9.3664176,3.580921 9.2533352,3.629163 9.17285,3.663493 8.9995242,3.737424 8.931949,3.74898 8.8668628,3.7158201 Z M 5.1235845,3.4169752 C 5.078996,3.4030829 4.7939053,3.2059043 4.6824846,3.111896 4.581592,3.0267701 4.5639064,2.9960205 4.5639064,2.9057301 c 0,-0.1690987 0.1623506,-0.2650482 0.3159434,-0.186723 0.087736,0.044741 0.4555741,0.3056146 0.4866751,0.345153 0.1065375,0.1354398 0.021832,0.3304212 -0.1553365,0.3575681 -0.026675,0.00409 -0.066097,0.00195 -0.087604,-0.00475 z M 8.2290396,2.8983461 C 8.1470644,2.8738153 8.066638,2.7666013 8.066638,2.6818542 c 0,-0.05518 0.04115,-0.1246448 0.1995155,-0.3367955 0.1628873,-0.2182079 0.2255042,-0.280322 0.2959113,-0.2935303 0.1367277,-0.02565 0.2603699,0.079054 0.2602463,0.2203875 -5.17e-5,0.072245 -0.013985,0.09627 -0.190771,0.3291942 -0.1749618,0.2305205 -0.1968055,0.2541208 -0.2640104,0.2852364 -0.061537,0.02849 -0.078477,0.029958 -0.1384901,0.012 z M 5.9869241,2.7323343 C 5.9303547,2.6978388 5.9061297,2.6565894 5.7849945,2.3884958 5.6674063,2.128253 5.6580271,2.0854627 5.6999839,2.0006706 c 0.044794,-0.090524 0.088711,-0.1164191 0.1974393,-0.1164191 0.1510877,0 0.1648366,0.016041 0.3238503,0.3778631 0.1021325,0.2323924 0.1163108,0.3137019 0.068261,0.3914492 -0.059525,0.096314 -0.2097229,0.1354113 -0.3026104,0.078771 z M 7.1319733,2.5676455 c -0.044754,-0.0094 -0.1388745,-0.1025021 -0.1505169,-0.148892 -0.00533,-0.021259 0.00348,-0.177705 0.019574,-0.3476585 0.022232,-0.2346415 0.035439,-0.3195557 0.054878,-0.3528394 0.082747,-0.141682 0.2961423,-0.1448012 0.3810333,-0.00557 0.034599,0.056747 0.034595,0.089784 -4.27e-5,0.4293165 C 7.406526,2.4396862 7.391478,2.4895516 7.3183858,2.5347249 7.2719478,2.5634259 7.185001,2.5787809 7.1319793,2.5676459 Z"
       id="path438"
       sodipodi:nodetypes="sssscssssscsssscssscssssssssssssssssssssssssssssssscssssscsssssssssssssssssssccsssssscssssssssssssssssssssssssssssscssssssscsssssssssssssscsssssssssssscsscsss" />
  </g>
</svg>
