<?xml version="1.0" encoding="UTF-8" standalone="no"?>
<!-- Created with Inkscape (http://www.inkscape.org/) -->

<svg
   width="10mm"
   height="10mm"
   viewBox="0 0 10 10"
   version="1.1"
   id="svg443"
   inkscape:version="1.2.2 (732a01da63, 2022-12-09)"
   sodipodi:docname="human.svg"
   inkscape:export-filename="human.png"
   inkscape:export-xdpi="254"
   inkscape:export-ydpi="254"
   xmlns:inkscape="http://www.inkscape.org/namespaces/inkscape"
   xmlns:sodipodi="http://sodipodi.sourceforge.net/DTD/sodipodi-0.dtd"
   xmlns="http://www.w3.org/2000/svg"
   xmlns:svg="http://www.w3.org/2000/svg">
  <sodipodi:namedview
     id="namedview445"
     pagecolor="#ffffff"
     bordercolor="#000000"
     borderopacity="0.25"
     inkscape:showpageshadow="2"
     inkscape:pageopacity="0.0"
     inkscape:pagecheckerboard="0"
     inkscape:deskcolor="#d1d1d1"
     inkscape:document-units="mm"
     showgrid="false"
     inkscape:zoom="11.816274"
     inkscape:cx="18.745334"
     inkscape:cy="26.19269"
     inkscape:window-width="1350"
     inkscape:window-height="1032"
     inkscape:window-x="422"
     inkscape:window-y="91"
     inkscape:window-maximized="0"
     inkscape:current-layer="layer1" />
  <defs
     id="defs440">
    <clipPath
       clipPathUnits="userSpaceOnUse"
       id="clipPath754">
      <path
         d="m 201.12,260.28 h 22.44 v 22.44 h -22.44 z"
         clip-rule="evenodd"
         id="path752" />
    </clipPath>
    <clipPath
       clipPathUnits="userSpaceOnUse"
       id="clipPath764">
      <path
         d="M 0,0 H 11.65 V 11.654 H 0 Z"
         id="path762" />
    </clipPath>
  </defs>
  <g
     inkscape:label="Layer 1"
     inkscape:groupmode="layer"
     id="layer1">
    <g
       id="g748"
       transform="matrix(0.47337552,0,0,-0.47337555,-95.535113,133.52074)">
      <g
         id="g750"
         clip-path="url(#clipPath754)">
        <g
           id="g756"
           transform="matrix(0.31167,-3.77e-7,-1.88e-7,0.31167,201.12,260.28)">
          <g
             id="g758"
             transform="scale(6.1802,6.178)">
            <g
               id="g760"
               clip-path="url(#clipPath764)">
              <path
                 d="m 6.805,10.249 c 0,-0.53 -0.4298,-0.9599 -0.96,-0.9599 -0.5302,0 -0.96,0.4299 -0.96,0.9599 0,0.53 0.4298,0.96 0.96,0.96 0.5302,0 0.96,-0.43 0.96,-0.96 z"
                 style="fill:#000000;fill-opacity:1;fill-rule:nonzero;stroke:none"
                 id="path766" />
              <path
                 d="m 8.461,5.3051 -0.672,2.856 c -0.024,0.096 -0.072,0.192 -0.144,0.264 -0.288,0.24 -0.624,0.408 -1.008,0.528 -0.264,0.048 -0.528,0.096 -0.792,0.096 -0.264,0 -0.528,-0.048 -0.792,-0.12 C 4.669,8.8331 4.333,8.6411 4.045,8.4011 3.973,8.3291 3.925,8.2331 3.901,8.1371 L 3.229,5.2811 c 0,-0.024 -0.024,-0.072 -0.024,-0.12 0,-0.264 0.216,-0.48 0.48,-0.48 0.216,0 0.408,0.168 0.456,0.36 l 0.504,2.088 V 0.40915 h 0.96 V 4.7291 h 0.48 V 0.40915 h 0.96 V 7.1531 l 0.504,-2.088 c 0.048,-0.192 0.24,-0.36 0.456,-0.36 0.264,0 0.48,0.216 0.48,0.48 0,0.048 -0.024,0.096 -0.024,0.12 z"
                 style="fill:#000000;fill-opacity:1;fill-rule:nonzero;stroke:none"
                 id="path768" />
            </g>
          </g>
        </g>
      </g>
    </g>
  </g>
</svg>
