<?xml version="1.0" encoding="UTF-8" standalone="no"?>
<!-- Created with Inkscape (http://www.inkscape.org/) -->

<svg
   width="10mm"
   height="10mm"
   viewBox="0 0 10 10"
   version="1.1"
   id="svg443"
   inkscape:version="1.2.2 (732a01da63, 2022-12-09)"
   sodipodi:docname="human.svg"
   inkscape:export-filename="human.png"
   inkscape:export-xdpi="254"
   inkscape:export-ydpi="254"
   xmlns:inkscape="http://www.inkscape.org/namespaces/inkscape"
   xmlns:sodipodi="http://sodipodi.sourceforge.net/DTD/sodipodi-0.dtd"
   xmlns="http://www.w3.org/2000/svg"
   xmlns:svg="http://www.w3.org/2000/svg">
  <sodipodi:namedview
     id="namedview445"
     pagecolor="#ffffff"
     bordercolor="#000000"
     borderopacity="0.25"
     inkscape:showpageshadow="2"
     inkscape:pageopacity="0.0"
     inkscape:pagecheckerboard="0"
     inkscape:deskcolor="#d1d1d1"
     inkscape:document-units="mm"
     showgrid="false"
     inkscape:zoom="11.816274"
     inkscape:cx="22.426698"
     inkscape:cy="26.065747"
     inkscape:window-width="1920"
     inkscape:window-height="1009"
     inkscape:window-x="-8"
     inkscape:window-y="-8"
     inkscape:window-maximized="1"
     inkscape:current-layer="layer1" />
  <defs
     id="defs440" />
  <g
     inkscape:label="Layer 1"
     inkscape:groupmode="layer"
     id="layer1">
    <path
       style="fill:#000000;stroke-width:0.0188639"
       d="M 4.1763417,9.9713268 C 4.085691,9.9437523 4.0128165,9.8965567 3.9450275,9.8215226 3.8098734,9.6719224 3.8180484,9.8799673 3.8180484,6.5900133 V 3.6317937 H 3.6860007 3.5539524 l -4.263e-4,1.1931465 c -3.553e-4,1.116784 -0.00263,1.1980253 -0.035044,1.2693822 -0.019046,0.04193 -0.061706,0.09902 -0.0948,0.1268671 C 3.347188,6.2855553 3.1981156,6.3304514 3.1089401,6.3159801 3.0071861,6.2994685 2.8744597,6.201051 2.8240371,6.1047231 L 2.7805148,6.0215844 V 4.7050472 3.3885101 l 0.047281,-0.1471698 c 0.098667,-0.3071135 0.3234998,-0.5235918 0.6695492,-0.644671 0.073256,-0.025631 0.2579323,-0.030536 1.3477604,-0.03579 0.8370113,-0.00404 1.3077429,7.578e-4 1.3959344,0.014212 0.3782095,0.057701 0.7157099,0.3613633 0.8105756,0.7293068 0.025879,0.1003738 0.029829,0.2899745 0.029471,1.414798 -3.552e-4,1.2193774 -0.00253,1.3035575 -0.035044,1.3751268 C 7.0004149,6.194773 6.9128021,6.2660034 6.7925707,6.3003993 6.6297402,6.346982 6.4775215,6.2896541 6.3743625,6.1429007 l -0.056852,-0.080881 -0.00512,-1.215113 -0.00512,-1.2151131 H 6.1756293 6.0439852 l -2.122e-4,2.994656 -2.124e-4,2.9946548 -0.044543,0.095657 C 5.8323475,10.074694 5.3057492,10.073872 5.1441748,9.7154187 5.112416,9.6449591 5.1098156,9.5354969 5.1049316,8.06295 l -0.00523,-1.5770135 -0.1323257,-0.00387 c -0.072779,-0.00213 -0.148947,0.00142 -0.1692608,0.00786 -0.036281,0.011515 -0.036935,0.039525 -0.036935,1.5818888 v 1.5701665 l -0.048082,0.096488 C 4.617616,9.9300667 4.3797888,10.033225 4.1762697,9.971317 Z M 3.0916685,9.340229 C 2.9655512,9.3007021 2.4448384,9.0261847 2.2532529,8.8982207 1.1754806,8.1783549 0.46914003,7.0843135 0.22325782,5.7539888 0.18152786,5.528213 0.16439079,4.7746146 0.19524576,4.522158 0.34699323,3.2805395 0.98876176,2.1467997 1.9728344,1.3818929 2.21304,1.1951846 2.4486685,1.0508317 2.7676189,0.89498283 3.1607821,0.70287145 3.2540247,0.69183271 3.3530726,0.82566853 c 0.046963,0.063462 0.049573,0.20677957 0.00532,0.29234957 -0.038199,0.073869 -0.093846,0.112646 -0.298319,0.2078821 C 2.6917374,1.4974599 2.276077,1.7849917 1.9630487,2.084766 1.4062863,2.617955 0.99717245,3.3291101 0.81175556,4.0860408 0.67334558,4.6510724 0.66996112,5.3168614 0.80237048,5.9324494 0.89641179,6.3696621 1.140037,6.9413514 1.3927367,7.3177993 c 0.3965026,0.5906724 0.9387904,1.0645848 1.6012834,1.3993854 0.3437865,0.1737371 0.3901581,0.2222671 0.3901581,0.4083188 0,0.1128683 -0.030344,0.1697994 -0.113392,0.2127457 -0.064095,0.033144 -0.079146,0.03331 -0.1791163,0.00197 z M 6.598374,9.348669 C 6.5192906,9.3152969 6.4778685,9.2371954 6.4778685,9.1214554 c 0,-0.1721532 0.037019,-0.2108603 0.3637214,-0.3803052 C 7.8113492,8.2381784 8.4884569,7.5182325 8.857124,6.5980962 9.2096638,5.718211 9.2674731,4.8017828 9.02326,3.9643733 8.8243836,3.2824215 8.496253,2.7142072 8.0158296,2.2198381 7.6574293,1.8510341 7.3167634,1.5995615 6.8448275,1.3554281 6.6990867,1.280036 6.5604346,1.1976911 6.5367127,1.1724414 6.4803271,1.1124245 6.4585538,1.010691 6.4808523,0.91144788 6.5018139,0.81815188 6.5215819,0.79096038 6.5966762,0.75212702 6.6725935,0.71287039 6.7661679,0.73820331 7.0532194,0.87574914 8.3040632,1.4750949 9.221167,2.6094464 9.5726457,3.9919861 9.8022455,4.947627 9.6567249,6.0019377 9.3328474,6.8103704 8.8976048,7.8799812 8.038138,8.7646484 6.9614479,9.2512974 6.731578,9.3551954 6.6595973,9.3744993 6.598374,9.3486647 Z M 4.6857908,2.0562575 C 4.3046212,1.9514155 4.0190072,1.6550534 3.9407979,1.2832297 3.8962313,1.0713495 3.9095555,0.92317744 3.992534,0.70787808 4.0486682,0.56223306 4.1040538,0.47901027 4.2222869,0.36265156 4.410031,0.17788327 4.6562663,0.08130499 4.9393013,0.0814249 5.2147149,0.08156629 5.4371826,0.16520876 5.6242023,0.33900273 6.0471939,0.73208171 6.0606255,1.3782439 5.6544183,1.7925568 5.470865,1.9797716 5.2632649,2.067355 4.9781828,2.0778506 4.8486977,2.0826201 4.7570085,2.0758372 4.6857908,2.0562575 Z"
       id="path302"
       sodipodi:nodetypes="cssccccsssscccssscscssscccccccssscssscsccsssssssssssssssssssssssssssssccsscssscsssc" />
  </g>
</svg>
