<?xml version="1.0" encoding="UTF-8" standalone="no"?>
<!-- Created with Inkscape (http://www.inkscape.org/) -->

<svg
   width="10mm"
   height="10mm"
   viewBox="0 0 10 10"
   version="1.1"
   id="svg443"
   inkscape:version="1.2.2 (732a01da63, 2022-12-09)"
   sodipodi:docname="time.svg"
   inkscape:export-filename="time.png"
   inkscape:export-xdpi="254"
   inkscape:export-ydpi="254"
   xmlns:inkscape="http://www.inkscape.org/namespaces/inkscape"
   xmlns:sodipodi="http://sodipodi.sourceforge.net/DTD/sodipodi-0.dtd"
   xmlns="http://www.w3.org/2000/svg"
   xmlns:svg="http://www.w3.org/2000/svg">
  <sodipodi:namedview
     id="namedview445"
     pagecolor="#ffffff"
     bordercolor="#000000"
     borderopacity="0.25"
     inkscape:showpageshadow="2"
     inkscape:pageopacity="0.0"
     inkscape:pagecheckerboard="0"
     inkscape:deskcolor="#d1d1d1"
     inkscape:document-units="mm"
     showgrid="false"
     inkscape:zoom="11.816274"
     inkscape:cx="12.44047"
     inkscape:cy="15.825632"
     inkscape:window-width="1920"
     inkscape:window-height="1009"
     inkscape:window-x="-8"
     inkscape:window-y="-8"
     inkscape:window-maximized="1"
     inkscape:current-layer="layer1" />
  <defs
     id="defs440" />
  <g
     inkscape:label="Layer 1"
     inkscape:groupmode="layer"
     id="layer1">
    <path
       style="fill:#000000;stroke-width:0.0138069"
       d="M 1.7713069,9.9558045 C 1.4578043,9.9212342 1.197432,9.5980144 1.2231506,9.2753376 1.2430906,9.0251072 1.3815815,8.8281121 1.613444,8.7201515 1.690508,8.6842665 1.708478,8.6817935 1.9264651,8.6770215 l 0.2312647,-0.00504 V 7.3282576 l 0.00604,-0.6906137 0.029385,-0.6951824 c 0.00538,-0.1265633 0.2438976,-0.077155 0.2909407,0.03543 0.015458,0.036985 0.018823,0.2825769 0.018823,1.3709623 V 8.674758 h 0.060854 0.060854 l 0.00637,-0.4521751 C 2.6379394,7.7267397 2.6428521,7.6880919 2.7323241,7.4186816 2.8455323,7.0778155 3.0299383,6.7951436 3.3333533,6.4973781 3.5578097,6.2771008 3.6926806,6.1704296 4.2879908,5.742346 4.567472,5.5413718 4.6141429,5.4980058 4.6671795,5.3900113 c 0.034049,-0.069339 0.037928,-0.092035 0.037928,-0.2222002 0,-0.2424643 -0.056546,-0.3303535 -0.3382692,-0.5257566 C 3.8828478,4.306355 3.4524013,3.9468631 3.2246384,3.6881291 2.8653748,3.2800161 2.6673194,2.8383929 2.6273847,2.3563787 2.6199413,2.2662062 2.6137054,2.060025 2.6135813,1.898199 l -2.109e-4,-0.2942298 -0.051773,0.0043 -0.051773,0.0043 -0.00687,1.2363287 c -0.00645,1.1498619 -0.014622,3.0808609 -0.010131,3.2387352 0.00306,0.108399 -0.3274878,0.9285145 -0.3275672,0.5708595 L 2.1646265,4.1041866 2.1609875,2.8549264 2.1573485,1.605667 H 1.9795291 c -0.1383743,0 -0.1975063,-0.00612 -0.2665636,-0.027408 C 1.4827538,1.5071495 1.2890296,1.3007658 1.2262454,1.0597222 1.2015333,0.96484299 1.1986634,0.7821143 1.2202906,0.67783485 1.2754627,0.41131174 1.4965621,0.17879751 1.7574199,0.1129756 1.8211023,0.09690614 2.3490308,0.09381299 5.0296505,0.09381299 h 3.1962922 l 0.096648,0.0304931 C 8.620558,0.21831203 8.8199639,0.48222661 8.8368489,0.80492995 8.8451317,0.96316243 8.8273009,1.058552 8.7656237,1.1862103 8.6711172,1.3817888 8.5340785,1.5052308 8.3386332,1.5708402 8.249645,1.6007131 8.2102256,1.605667 8.0615686,1.605667 H 7.8882517 l -0.00373,1.239167 C 7.8809672,4.0139918 7.8793957,6.3249288 7.8558183,6.3596299 7.7703426,6.4670926 7.6014934,6.6325774 7.5485981,6.5155664 7.5318008,6.4753722 7.5287159,3.8605065 7.5287159,2.8271857 v -1.223186 l -0.051773,0.0043 -0.051772,0.0043 -0.00845,0.4487241 C 7.4092743,2.4583234 7.4048331,2.5235763 7.3784256,2.6274067 7.2814845,3.0086085 7.1251782,3.3227734 6.8837319,3.6217125 6.663491,3.8943954 6.200928,4.2868326 5.6899812,4.6344854 5.4559865,4.7936971 5.4169129,4.8309562 5.3622808,4.9469623 c -0.031105,0.066048 -0.035761,0.094096 -0.035761,0.2153986 0,0.1321839 0.00256,0.1443911 0.048324,0.2339384 0.057231,0.1118899 0.1101242,0.1587419 0.4501715,0.3987418 0.4988495,0.3520816 0.8207573,0.619454 1.0245483,0.8509766 0.2700661,0.3068183 0.4267851,0.6084155 0.5233127,1.0070927 0.032809,0.135517 0.03553,0.1735659 0.041675,0.5833412 l 0.00661,0.4383688 h 0.053601 0.053601 l 0.00364,-1.3451626 c 0.00364,-1.3398099 0.00381,-3.3841171 0.032495,-3.4229403 0.084684,-0.078825 0.2153655,-0.036613 0.2878741,0.056205 0.028219,0.037788 0.028484,2.03277 0.032172,3.3667361 l 0.00373,1.3451642 0.2102891,3.523e-4 c 0.1863073,2.82e-4 0.2210101,0.00405 0.3043024,0.03347 0.2322289,0.081951 0.4023312,0.3087767 0.4199157,0.559935 0.016566,0.2366279 -0.099028,0.4627681 -0.304395,0.5955037 -0.1579051,0.1020586 0.1300021,0.09386 -3.4414934,0.098009 -1.7687197,0.00208 -3.2561635,-7.116e-4 -3.3054297,-0.00613 z M 8.2648312,9.5987952 C 8.2956552,9.5902352 8.3452692,9.5572362 8.384071,9.5194822 8.436853,9.4681312 8.453477,9.4406232 8.464848,9.3857923 8.4971113,9.2302628 8.4183354,9.0846478 8.2755695,9.0359258 8.2120443,9.014249 1.859071,9.012901 1.7811148,9.0345199 1.71582,9.0526492 1.6396522,9.1185321 1.6046402,9.1871598 c -0.072879,0.1428628 0.011711,0.3487023 0.1692925,0.4119381 0.046943,0.01884 6.4230346,0.018518 6.4908976,-3.523e-4 z M 7.0729801,8.4453157 V 8.2158921 l -0.031063,0.0067 C 6.759863,8.2838007 6.7110427,8.2903509 6.5345144,8.2907148 6.0969049,8.2916245 5.7845793,8.205201 5.1124053,7.8972661 4.7650445,7.7381331 4.6997957,7.7191003 4.4748556,7.711293 4.3653557,7.7074885 4.2377504,7.7116453 4.1711047,7.7210356 3.922244,7.7563172 3.5058605,7.8740436 3.1138592,8.0199548 L 2.9723388,8.0726297 V 8.3736615 8.6746947 H 5.0226594 7.0729826 Z M 6.9135129,7.9162046 C 6.9814794,7.9005487 7.0418651,7.8829657 7.0477057,7.8771268 7.0618646,7.8629679 7.0162366,7.6452147 6.9709726,7.5109151 6.8313602,7.0966994 6.5327586,6.7611529 5.8587237,6.2610488 5.3042489,5.8496533 5.2709239,5.8216661 5.1901896,5.699606 L 5.1538243,5.6446242 V 6.1114217 6.57822 l -0.04036,0.040359 C 5.0671007,6.6649438 4.9875879,6.6735863 4.9365212,6.6378251 4.8848972,6.6016666 4.8778425,6.5346025 4.8777598,6.079238 l -5.21e-5,-0.4347321 -0.047969,0.071225 C 4.7753776,5.7964586 4.6210306,5.9360603 4.4509507,6.0583428 3.9430201,6.4235289 3.7078172,6.6143072 3.5049525,6.8256649 3.2661568,7.0744569 3.0616488,7.4344856 3.0210964,7.6774776 l -0.00984,0.05896 0.046133,-0.02654 c 0.073568,-0.042328 0.3493407,-0.1475301 0.5275687,-0.2012607 0.5682591,-0.1713114 0.9701908,-0.190206 1.3479173,-0.063368 0.064584,0.021686 0.2404382,0.095774 0.3907948,0.1646404 0.4132183,0.1892623 0.6374066,0.26562 0.9554364,0.3254218 0.1528633,0.02874 0.4678569,0.019253 0.6344293,-0.019113 z M 5.1309617,4.6781541 C 5.1847112,4.5972031 5.3055167,4.4884568 5.4843013,4.360088 5.9823783,4.0024644 6.2150373,3.8172389 6.4141067,3.6198491 6.5282677,3.5066509 6.6190514,3.4114135 6.6158475,3.4082095 6.860449,3.0520515 6.7991948,3.1313583 6.835928,3.0716482 6.856579,3.0455802 6.934911,2.8952514 6.934911,2.881687 c 0,-0.00479 -0.010875,-0.00447 -0.024166,7.419e-4 -0.076534,0.030145 -0.3098087,0.077353 -0.4497925,0.091019 -0.1826824,0.01784 -0.4642651,0.00215 -0.6789193,-0.037804 C 5.713686,2.9229235 5.5863204,2.9120313 5.4989912,2.9114524 5.3026353,2.9101291 5.2334357,2.9315744 4.9881362,3.0696932 4.6143199,3.2801707 4.3399192,3.3964911 4.0903182,3.4502845 3.9272815,3.4854257 3.663118,3.4828536 3.5332498,3.4448261 l -0.094909,-0.027764 0.094909,0.096426 c 0.2012445,0.2044609 0.4865555,0.4385804 1.0031453,0.8231582 0.2229477,0.1659752 0.3343414,0.2729765 0.3920451,0.3765877 0.037664,0.06762 0.049606,0.095178 0.080323,0.1853091 0.00744,0.021751 0.016168,0.00914 0.041236,-0.059398 0.017501,-0.047853 0.053931,-0.1203076 0.080951,-0.1610055 z M 3.9457204,3.1229374 C 4.1669025,3.0959427 4.4137337,2.9989866 4.7396171,2.8110873 5.0461343,2.634353 5.1511763,2.5943912 5.373288,2.5700148 c 0.1510901,-0.016582 0.2533036,-0.00908 0.6917897,0.05074 0.2930084,0.039979 0.5303045,0.017931 0.8194093,-0.07613 l 0.1721566,-0.056008 0.00899,-0.1273953 c 0.00496,-0.070067 0.00703,-0.2671905 0.00471,-0.4380512 l -0.0043,-0.3106538 H 5.0191925 2.9723297 l 2.821e-4,0.3451716 c 2.82e-4,0.3972531 0.018476,0.5634004 0.085258,0.7784582 0.052865,0.1702445 0.076584,0.1983019 0.2344272,0.2773053 0.220054,0.1101407 0.4004198,0.1403608 0.6534405,0.1094832 z M 8.2500618,1.2329185 c 0.083492,-0.031238 0.1580944,-0.1013137 0.2058785,-0.1933852 0.026797,-0.0516323 0.032247,-0.083122 0.032247,-0.18639249 0,-0.11197758 -0.00405,-0.1315843 -0.041022,-0.19832508 C 8.4054327,0.57946379 8.3336006,0.51142952 8.2465667,0.46481568 8.1997229,0.43973145 8.1011526,0.43893748 5.0295628,0.43893748 H 1.8608839 l -0.072896,0.0329412 c -0.092588,0.0418401 -0.1866827,0.14486082 -0.2177547,0.23840856 -0.029104,0.087617 -0.022305,0.25898294 0.01296,0.32662346 0.03988,0.076493 0.1220758,0.157092 0.1948465,0.1910513 l 0.069033,0.032213 3.1647091,1.547e-4 c 3.1276683,1.555e-4 3.1655709,-2.109e-4 3.2382771,-0.027392 z"
       id="path424"
       sodipodi:nodetypes="cssccccssscccssssssssscccccsscccsssssscssssscsccscccssssssssssscccsccccccsssccsssssssssccscsccscccccccsssscccssccsssscssssscccssccsssssssscssssscccsssscscccccsscccssssscsssscscc" />
  </g>
</svg>
