<?xml version="1.0" encoding="UTF-8" standalone="no"?>
<!-- Created with Inkscape (http://www.inkscape.org/) -->

<svg
   width="10mm"
   height="10mm"
   viewBox="0 0 10 10"
   version="1.1"
   id="svg443"
   inkscape:version="1.2.2 (732a01da63, 2022-12-09)"
   sodipodi:docname="time.svg"
   inkscape:export-filename="time.png"
   inkscape:export-xdpi="254"
   inkscape:export-ydpi="254"
   xmlns:inkscape="http://www.inkscape.org/namespaces/inkscape"
   xmlns:sodipodi="http://sodipodi.sourceforge.net/DTD/sodipodi-0.dtd"
   xmlns="http://www.w3.org/2000/svg"
   xmlns:svg="http://www.w3.org/2000/svg">
  <sodipodi:namedview
     id="namedview445"
     pagecolor="#ffffff"
     bordercolor="#000000"
     borderopacity="0.25"
     inkscape:showpageshadow="2"
     inkscape:pageopacity="0.0"
     inkscape:pagecheckerboard="0"
     inkscape:deskcolor="#d1d1d1"
     inkscape:document-units="mm"
     showgrid="false"
     inkscape:zoom="11.816274"
     inkscape:cx="8.8437353"
     inkscape:cy="15.910261"
     inkscape:window-width="1920"
     inkscape:window-height="1009"
     inkscape:window-x="-8"
     inkscape:window-y="-8"
     inkscape:window-maximized="1"
     inkscape:current-layer="layer1" />
  <defs
     id="defs440">
    <clipPath
       clipPathUnits="userSpaceOnUse"
       id="clipPath956">
      <path
         d="m 216.24,320.4 h 20.64 v 20.52 h -20.64 z"
         clip-rule="evenodd"
         id="path954" />
    </clipPath>
    <clipPath
       clipPathUnits="userSpaceOnUse"
       id="clipPath966">
      <path
         d="M 0,0 H 11.65 V 11.654 H 0 Z"
         id="path964" />
    </clipPath>
  </defs>
  <g
     inkscape:label="Layer 1"
     inkscape:groupmode="layer"
     id="layer1">
    <g
       id="g950"
       transform="matrix(0.58338845,0,0,-0.58338848,-127.01897,197.9027)">
      <g
         id="g952"
         clip-path="url(#clipPath956)">
        <g
           id="g958"
           transform="matrix(0.28667,-3.77e-7,-1.88e-7,0.285,216.24,320.4)">
          <g
             id="g960"
             transform="scale(6.1802,6.178)">
            <g
               id="g962"
               clip-path="url(#clipPath966)">
              <path
                 d="M 8.881,9.8899 H 9.205 V 10.609 H 2.4886 V 9.8891 h 0.312 C 2.9326,8.558 3.7006,6.6149 4.8155,5.8114 3.7001,5.0074 2.9206,3.065 2.8006,1.7337 h -0.312 v -0.72 H 9.205 v 0.72 H 8.881 C 8.761,3.065 7.981,5.0079 6.8661,5.8114 7.9816,6.6157 8.761,8.5587 8.881,9.8899 Z m -0.7236,0 C 8.0911,9.3542 7.9552,8.8296 7.753,8.3291 H 3.937 C 3.7348,8.8298 3.5965,9.3539 3.5253,9.8891 Z M 5.2361,5.228 c 0.047,0.0338 0.0897,0.0732 0.1272,0.1173 L 5.6086,5.0314 V 2.9291 L 4.4142,1.7348 H 3.5238 C 3.6511,2.9291 4.3578,4.5952 5.2361,5.228 Z M 8.1575,1.7348 H 7.2829 L 6.0886,2.9291 v 2.1108 l 0.2348,0.3 C 6.3596,5.2982 6.4005,5.2607 6.4452,5.2283 7.3236,4.5952 8.0303,2.9291 8.1575,1.7348 Z"
                 style="fill:#000000;fill-opacity:1;fill-rule:nonzero;stroke:none"
                 id="path968" />
            </g>
          </g>
        </g>
      </g>
    </g>
  </g>
</svg>
